<svg width="356" height="46" viewBox="0 0 356 46" fill="none" xmlns="http://www.w3.org/2000/svg">
<path fill-rule="evenodd" clip-rule="evenodd" d="M259.244 25.324C259.084 26.124 259.004 26.9374 259.004 27.764C259.004 28.5907 259.084 29.404 259.244 30.204C259.404 30.9774 259.671 31.684 260.044 32.324C260.444 32.9374 260.964 33.4307 261.604 33.804C262.244 34.1774 263.044 34.364 264.004 34.364C264.964 34.364 265.764 34.1774 266.404 33.804C267.071 33.4307 267.591 32.9374 267.964 32.324C268.364 31.684 268.644 30.9774 268.804 30.204C268.964 29.404 269.044 28.5907 269.044 27.764C269.044 26.9374 268.964 26.124 268.804 25.324C268.644 24.524 268.364 23.8174 267.964 23.204C267.591 22.5907 267.071 22.0974 266.404 21.724C265.764 21.324 264.964 21.124 264.004 21.124C263.044 21.124 262.244 21.324 261.604 21.724C260.964 22.0974 260.444 22.5907 260.044 23.204C259.671 23.8174 259.404 24.524 259.244 25.324ZM254.084 32.244C253.578 30.9107 253.324 29.4174 253.324 27.764C253.324 26.1107 253.578 24.6174 254.084 23.284C254.591 21.924 255.311 20.7774 256.244 19.844C257.178 18.884 258.298 18.1507 259.604 17.644C260.911 17.1107 262.378 16.844 264.004 16.844C265.631 16.844 267.098 17.1107 268.404 17.644C269.738 18.1507 270.871 18.884 271.804 19.844C272.738 20.7774 273.458 21.924 273.964 23.284C274.471 24.6174 274.724 26.1107 274.724 27.764C274.724 29.4174 274.471 30.9107 273.964 32.244C273.458 33.5774 272.738 34.724 271.804 35.684C270.871 36.6174 269.738 37.3374 268.404 37.844C267.098 38.3507 265.631 38.604 264.004 38.604C262.378 38.604 260.911 38.3507 259.604 37.844C258.298 37.3374 257.178 36.6174 256.244 35.684C255.311 34.724 254.591 33.5774 254.084 32.244ZM277.777 38.084V17.404H283.137V20.204H283.217C283.964 19.1374 284.857 18.3107 285.897 17.724C286.964 17.1374 288.177 16.844 289.537 16.844C290.844 16.844 292.031 17.0974 293.097 17.604C294.191 18.1107 295.017 19.004 295.577 20.284C296.191 19.3774 297.017 18.5774 298.057 17.884C299.124 17.1907 300.377 16.844 301.817 16.844C302.911 16.844 303.924 16.9774 304.857 17.244C305.791 17.5107 306.591 17.9374 307.257 18.524C307.924 19.1107 308.444 19.884 308.817 20.844C309.191 21.7774 309.377 22.9107 309.377 24.244V38.084H303.697V26.364C303.697 25.6707 303.671 25.0174 303.617 24.404C303.564 23.7907 303.417 23.2574 303.177 22.804C302.937 22.3507 302.577 21.9907 302.097 21.724C301.644 21.4574 301.017 21.324 300.217 21.324C299.417 21.324 298.764 21.484 298.257 21.804C297.777 22.0974 297.391 22.4974 297.097 23.004C296.831 23.484 296.644 24.044 296.537 24.684C296.457 25.2974 296.417 25.924 296.417 26.564V38.084H290.737V26.484C290.737 25.8707 290.724 25.2707 290.697 24.684C290.671 24.0707 290.551 23.5107 290.337 23.004C290.151 22.4974 289.817 22.0974 289.337 21.804C288.884 21.484 288.204 21.324 287.297 21.324C287.031 21.324 286.671 21.3907 286.217 21.524C285.791 21.6307 285.364 21.8574 284.937 22.204C284.537 22.524 284.191 23.004 283.897 23.644C283.604 24.2574 283.457 25.0707 283.457 26.084V38.084H277.777ZM313.827 20.444C313.241 21.324 312.907 22.4307 312.827 23.764H318.507C318.614 22.644 318.987 21.844 319.627 21.364C320.267 20.884 321.147 20.644 322.267 20.644C322.774 20.644 323.241 20.684 323.667 20.764C324.121 20.8174 324.507 20.9507 324.827 21.164C325.174 21.3507 325.441 21.6307 325.627 22.004C325.841 22.3507 325.947 22.8307 325.947 23.444C325.974 24.0307 325.801 24.484 325.427 24.804C325.054 25.0974 324.547 25.324 323.907 25.484C323.267 25.644 322.534 25.764 321.707 25.844C320.881 25.924 320.041 26.0307 319.187 26.164C318.334 26.2974 317.481 26.484 316.627 26.724C315.801 26.9374 315.054 27.2707 314.387 27.724C313.747 28.1774 313.214 28.7907 312.787 29.564C312.387 30.3107 312.187 31.2707 312.187 32.444C312.187 33.5107 312.361 34.4307 312.707 35.204C313.081 35.9774 313.587 36.6174 314.227 37.1241C314.867 37.6307 315.614 38.004 316.467 38.244C317.321 38.484 318.241 38.604 319.227 38.604C320.507 38.604 321.761 38.4174 322.987 38.044C324.214 37.6707 325.281 37.0174 326.187 36.084C326.214 36.4307 326.254 36.7774 326.307 37.1241C326.387 37.444 326.481 37.764 326.587 38.084H332.347C332.081 37.6574 331.894 37.0174 331.787 36.164C331.681 35.3107 331.627 34.4174 331.627 33.484V22.724C331.627 21.4707 331.347 20.4707 330.787 19.724C330.227 18.9507 329.507 18.3507 328.627 17.924C327.747 17.4974 326.774 17.2174 325.707 17.084C324.641 16.924 323.587 16.844 322.547 16.844C321.401 16.844 320.254 16.964 319.107 17.204C317.987 17.4174 316.974 17.7907 316.067 18.324C315.161 18.8574 314.414 19.564 313.827 20.444ZM325.027 28.484C325.401 28.3507 325.707 28.1774 325.947 27.964V30.084C325.947 30.404 325.907 30.8307 325.827 31.364C325.774 31.8974 325.601 32.4307 325.307 32.964C325.014 33.4707 324.561 33.9107 323.947 34.284C323.334 34.6574 322.467 34.844 321.347 34.844C320.894 34.844 320.454 34.804 320.027 34.724C319.601 34.644 319.227 34.5107 318.907 34.324C318.587 34.1107 318.334 33.8307 318.147 33.484C317.961 33.1374 317.867 32.7107 317.867 32.2041C317.867 31.6707 317.961 31.2307 318.147 30.884C318.334 30.5374 318.574 30.2574 318.867 30.044C319.187 29.804 319.547 29.6174 319.947 29.484C320.374 29.3507 320.801 29.244 321.227 29.164C321.681 29.084 322.134 29.0174 322.587 28.964C323.041 28.9107 323.467 28.844 323.867 28.764C324.294 28.684 324.681 28.5907 325.027 28.484ZM349.676 30.164C349.836 29.364 349.916 28.5374 349.916 27.684C349.916 26.8307 349.836 26.0174 349.676 25.244C349.516 24.444 349.236 23.7507 348.836 23.164C348.463 22.5507 347.969 22.0574 347.356 21.684C346.743 21.3107 345.969 21.124 345.036 21.124C344.103 21.124 343.316 21.3107 342.676 21.684C342.036 22.0574 341.516 22.5507 341.116 23.164C340.743 23.7774 340.463 24.484 340.276 25.284C340.116 26.0574 340.036 26.8707 340.036 27.724C340.036 28.524 340.129 29.324 340.316 30.124C340.503 30.924 340.796 31.644 341.196 32.284C341.623 32.8974 342.143 33.404 342.756 33.804C343.396 34.1774 344.156 34.364 345.036 34.364C345.969 34.364 346.743 34.1774 347.356 33.804C347.996 33.4307 348.503 32.9374 348.876 32.324C349.249 31.684 349.516 30.964 349.676 30.164ZM349.996 38.084V35.444H349.916C349.249 36.564 348.369 37.3774 347.276 37.884C346.209 38.364 344.996 38.604 343.636 38.604C342.089 38.604 340.729 38.3107 339.556 37.724C338.383 37.1107 337.409 36.2974 336.636 35.284C335.889 34.244 335.316 33.0574 334.916 31.724C334.543 30.3907 334.356 29.004 334.356 27.564C334.356 26.1774 334.543 24.844 334.916 23.564C335.316 22.2574 335.889 21.1107 336.636 20.124C337.409 19.1374 338.369 18.3507 339.516 17.764C340.663 17.1507 341.996 16.844 343.516 16.844C344.743 16.844 345.903 17.1107 346.996 17.644C348.116 18.1507 348.996 18.9107 349.636 19.924H349.716V9.52405H355.396V38.084H349.996Z" fill="white"/>
<path d="M234.93 36.1909C234.93 36.5835 234.973 36.9567 234.605 37.5265L234.31 38.574L234.786 38.4907L235.495 37.5265V37.2064C235.379 37.2064 235.553 37.1629 235.495 37.076V36.6411L235.495 26.8535C235.524 26.7665 235.408 26.6506 235.495 26.5056V25.7229C235.437 25.7229 235.553 25.6214 235.495 25.4185V23.2878C235.553 23.0849 235.437 22.9834 235.495 22.9834V21.9833V21.3745C235.495 21.3745 235.477 13.5399 235.495 12.982C235.513 12.4241 235.625 12.0737 235.625 12.0737C235.683 11.8997 235.897 11.6726 236.487 11.6726L236.017 11.2426L235.712 11.2861L235.669 10.9817C235.64 10.7208 235.625 10.2715 235.625 9.6337V8.67705C235.654 8.35816 235.669 8.01029 235.669 7.63342L234.93 8.67706L234.93 35.2259V36.1909Z" fill="white"/>
<path fill-rule="evenodd" clip-rule="evenodd" d="M247.605 36.0174C247.604 36.0027 247.601 35.9875 247.599 35.9719C247.587 35.884 247.573 35.7832 247.648 35.6879L247.661 35.6237C247.71 35.6315 247.698 35.6222 247.667 35.604C247.707 35.5965 247.745 35.5799 247.679 35.5343L247.699 35.4332L247.707 35.3906C247.74 35.3683 247.765 35.3453 247.737 35.3126C247.737 35.3004 247.735 35.2829 247.733 35.2618L247.746 35.1996L247.754 35.1599C247.756 35.1575 247.758 35.1551 247.76 35.1526C247.815 35.0938 247.877 35.0268 247.801 34.9224C247.701 34.8076 247.712 35.0318 247.726 35.1912C247.717 35.2034 247.709 35.2155 247.705 35.2279C247.609 34.8761 247.277 33.6443 247.279 33.5577C247.282 33.4158 247.488 32.3489 247.55 32.09L247.738 31.3131C247.8 31.0542 247.876 30.8073 247.967 30.5726C248.029 30.3373 248.195 29.9148 248.465 29.3051L249.551 26.5238C249.763 25.9366 249.93 25.4669 250.051 25.1145C250.144 24.7615 250.238 24.3849 250.332 23.9846C250.425 23.5844 250.518 23.2669 250.608 23.0321C250.67 22.7968 250.703 22.5964 250.706 22.4309L250.713 22.0762L250.726 21.4377L250.618 20.4066C250.512 19.9786 250.334 19.5848 250.083 19.2249C249.834 18.8414 249.44 18.4787 248.903 18.1368C248.366 17.7948 247.841 17.5714 247.328 17.4665C246.786 17.361 246.416 17.2945 246.216 17.2668C246.204 17.2642 246.193 17.2616 246.181 17.2591L248.615 20.4118C248.541 20.7813 248.458 21.1195 248.367 21.4265L248.179 22.3645C248.054 22.9899 247.98 23.4333 247.957 23.6948L247.94 24.0018L248.247 24.019L248.298 24.4284C248.025 24.6102 247.843 24.7807 247.752 24.9399L247.393 25.622C247.393 25.622 246.937 27.2024 244.134 29.9804L244.144 30.0154C244.823 32.486 245.166 33.7352 247.183 35.5909C247.342 35.737 247.482 35.8792 247.605 36.0174ZM245.442 16.3013C245.422 16.158 245.401 16.0036 245.379 15.8429C245.223 14.6917 245.024 13.2207 244.814 13.2453C244.628 13.2672 244.682 13.3404 244.739 13.4173C244.787 13.4826 244.837 13.5505 244.745 13.5921C244.769 13.5926 244.701 13.7827 244.601 14.0588C244.519 14.2859 244.416 14.5711 244.327 14.8569L245.442 16.3013Z" fill="white"/>
<path fill-rule="evenodd" clip-rule="evenodd" d="M227.836 10.5157C227.77 10.5891 227.707 10.6601 227.648 10.7287C227.71 10.7966 227.769 10.864 227.823 10.9309C227.892 11.047 227.98 11.135 228.085 11.195L228.883 13.3757C228.901 13.3645 228.919 13.3536 228.937 13.3429C229.316 13.0905 229.821 12.7812 230.453 12.4153C230.629 12.3059 230.813 12.204 231.006 12.1093L229.342 20.4173L231.648 11.8333C231.932 11.7269 232.231 11.6339 232.546 11.5541C233.341 11.3523 234.181 11.2579 235.065 11.2708C235.835 11.3594 236.347 11.429 236.599 11.4796C237.104 11.5808 237.663 11.7419 238.275 11.9631C238.856 12.1779 239.383 12.4149 239.857 12.6739C240.33 12.9329 240.721 13.1918 241.031 13.4508C241.34 13.7097 241.621 13.9466 241.873 14.1613C242.094 14.3697 242.372 14.7044 242.706 15.1654L243.246 15.9137L243.501 16.3589L243.795 16.8609L244.306 18.2437C244.621 19.1277 244.81 19.9043 244.873 20.5736L244.958 22.3635C244.945 22.9191 244.869 23.5441 244.73 24.2385C244.635 24.712 244.534 25.2992 244.427 25.9999C244.378 26.2435 244.326 26.4663 244.272 26.6683C244.146 27.8769 244.134 28.6876 244.134 28.883L244.134 29.9747L244.906 31.5498L245.141 29.7229C245.419 29.6436 246.386 29.6995 247.098 29.7406L247.098 29.7407C247.216 29.7475 247.327 29.7539 247.426 29.7592C247.754 29.4072 248.121 28.9532 248.526 28.3972C249.032 27.6776 249.464 26.8285 249.825 25.8501L250.45 23.4637L250.877 20.8406C250.884 19.9883 250.881 19.2654 250.869 18.6719C250.825 18.0721 250.724 17.4281 250.566 16.7399C250.408 16.0517 250.241 15.4929 250.065 15.0635C249.888 14.6341 249.636 14.0911 249.308 13.4344C248.942 12.8029 248.607 12.2599 248.304 11.8052C247.963 11.3758 247.534 10.8958 247.017 10.3653C246.468 9.8285 245.735 9.22218 244.82 8.54635C243.905 7.87052 243.05 7.38728 242.254 7.09661C241.427 6.79962 240.793 6.60686 240.351 6.51833L239.641 6.37606C239.325 6.31283 239.019 6.28432 238.722 6.29055C238.417 6.2295 238.137 6.18754 237.881 6.16465C237.871 6.18254 237.864 6.19201 237.861 6.19164C237.669 6.24129 237.374 6.32263 237.1 6.39828C236.792 6.48315 236.511 6.56083 236.431 6.5785C235.469 7.26733 234.38 7.99214 233.164 8.75293C231.948 9.51371 231.056 10.0123 230.488 10.2487C229.866 10.5289 229.419 10.7782 229.15 10.9967C228.831 11.21 228.574 11.3064 228.378 11.2858C228.269 11.2742 228.171 11.2439 228.085 11.195L227.836 10.5157Z" fill="white"/>
<path fill-rule="evenodd" clip-rule="evenodd" d="M237.783 23.5034L231.589 13.2072C231.244 12.6511 230.887 12.0684 230.516 11.4593C230.145 10.8502 229.775 10.3735 229.404 10.0292C229.06 9.6849 228.755 9.40682 228.49 9.19495C228.252 8.98308 227.907 8.77121 227.457 8.55934C227.034 8.34747 226.702 8.21505 226.464 8.16209C226.226 8.08263 225.842 8.04291 225.312 8.04291C224.571 8.04291 223.829 8.21505 223.087 8.55934C222.372 8.90363 221.843 9.31413 221.498 9.79084C221.181 10.2411 220.955 10.5854 220.823 10.8237C220.717 11.0356 220.624 11.2739 220.545 11.5388L220.386 12.2538C220.333 12.4657 220.307 12.7173 220.307 13.0086C220.307 13.1146 220.32 13.3132 220.346 13.6045C220.399 13.8693 220.452 14.0945 220.505 14.2798L220.783 13.8826C220.863 13.7237 220.942 13.578 221.022 13.4456C221.101 13.2867 221.247 13.1146 221.459 12.9292C221.697 12.7438 221.949 12.6246 222.213 12.5716C222.531 12.5187 222.862 12.5451 223.207 12.6511C223.418 12.6776 223.604 12.7703 223.763 12.9292L224.319 13.4059C224.504 13.5648 224.65 13.7369 224.756 13.9223L225.034 14.399L226.424 16.5045L234.728 30.6305L235.726 28.3011C235.753 28.2677 235.761 28.2205 235.77 28.1678C235.785 28.0865 235.801 27.9921 235.891 27.9154L236.263 27.0476C236.242 27.0382 236.255 27.0216 236.28 26.9883C236.318 26.94 236.383 26.8567 236.408 26.7101L237.421 24.3477C237.509 24.2281 237.525 24.1238 237.534 24.0634C237.54 24.0217 237.544 24.0009 237.565 24.0102L237.783 23.5034Z" fill="white"/>
<path d="M250.41 33.6978H250.968L251.868 33.8337C252.241 33.9545 252.582 34.1508 252.892 34.4226C253.223 34.6944 253.534 35.1172 253.823 35.691C254.113 36.2648 254.299 36.8235 254.382 37.3671C254.465 37.941 254.516 38.3336 254.537 38.545C254.578 38.7866 254.599 38.998 254.599 39.1792C254.599 39.3302 254.578 39.5869 254.537 39.9493C254.496 40.3117 254.434 40.5986 254.351 40.81C254.289 41.0516 254.154 41.3838 253.947 41.8066C253.741 42.2294 253.441 42.5465 253.048 42.7579C252.696 43.1807 252.323 43.4374 251.93 43.528C251.558 43.6186 251.268 43.6639 251.061 43.6639H250.317L250.875 43.3015C251.082 43.2411 251.279 43.1354 251.465 42.9844L252.054 42.2143L252.179 41.7613C252.241 41.6103 252.272 41.4291 252.272 41.2177C252.272 41.1271 252.179 40.8402 251.992 40.357C251.848 40.0852 251.682 39.8889 251.496 39.7681C251.31 39.6775 251.072 39.602 250.782 39.5416C250.555 39.5416 250.244 39.6322 249.851 39.8134L249.013 40.2211C248.579 40.3419 248.113 40.5231 247.617 40.7647C247.12 41.0063 246.779 41.1573 246.593 41.2177C245.869 41.6405 245.393 41.8821 245.165 41.9425C244.959 42.0331 244.731 42.1086 244.483 42.169C244.255 42.2596 243.945 42.3804 243.552 42.5314C243.159 42.6824 242.755 42.7579 242.342 42.7579C241.783 42.7579 241.245 42.5918 240.728 42.2596C240.459 42.169 240.231 42.0482 240.045 41.8972C239.859 41.7764 239.569 41.4895 239.176 41.0365C238.804 40.6137 238.525 40.0701 238.338 39.4057C238.152 38.7413 238.038 38.243 237.997 37.9107C237.956 37.5785 237.935 37.1708 237.935 36.6876C237.935 35.8722 238.07 35.1474 238.338 34.5132C238.483 34.0904 238.587 33.8035 238.649 33.6525C238.732 33.5015 238.856 33.3505 239.021 33.1995L239.735 32.7918L239.611 33.1995L239.518 33.5619L239.394 34.1508C239.352 34.6038 239.342 34.9209 239.363 35.1021C239.383 35.2833 239.435 35.4494 239.518 35.6004C239.621 35.7816 239.714 35.9326 239.797 36.0534C239.9 36.1742 240.035 36.3101 240.2 36.4611C240.366 36.6423 240.531 36.7631 240.697 36.8235C240.862 36.8839 240.987 36.9141 241.069 36.9141C241.193 36.9141 241.369 36.8839 241.597 36.8235L242.28 36.6423C242.507 36.5819 242.724 36.5064 242.931 36.4158C243.138 36.3554 243.51 36.1893 244.048 35.9175L246.5 34.8303C247.017 34.6189 247.431 34.4528 247.741 34.332C248.051 34.2414 248.382 34.1508 248.734 34.0602C249.086 33.9696 249.365 33.879 249.572 33.7884C249.779 33.728 249.955 33.6978 250.1 33.6978H250.41Z" fill="white"/>
<mask id="mask0_35_823" style="mask-type:alpha" maskUnits="userSpaceOnUse" x="219" y="32" width="17" height="13">
<path d="M227.774 32.2397L222.244 39.215L219.271 39.8819L219.021 41.7994L227.496 44.9119L233.082 39.215L234.337 38.5313L235.426 37.5461L235.125 36.1461L233.881 37.0587L229.497 36.0469L227.774 32.2397Z" fill="#D9D9D9"/>
</mask>
<g mask="url(#mask0_35_823)">
<path d="M249.909 38.1278C249.909 38.5844 249.875 38.9268 249.808 39.1551C249.74 39.416 249.621 39.6443 249.452 39.84C249.282 40.0683 249.13 40.2803 248.994 40.476C248.824 40.7043 248.604 40.9652 248.333 41.2587C248.062 41.5848 247.824 41.8294 247.621 41.9925C247.384 42.1556 247.129 42.3186 246.858 42.4817C246.587 42.6774 246.231 42.8405 245.79 42.9709C245.35 43.134 245.011 43.2318 244.773 43.2644C244.502 43.297 244.146 43.3134 243.706 43.3134C243.061 43.3134 242.434 43.2155 241.824 43.0198C241.18 42.8568 240.553 42.5306 239.943 42.0414C239.333 41.5522 238.909 40.9978 238.671 40.3781C238.434 39.7911 238.299 39.3182 238.265 38.9595C238.231 38.6007 238.214 38.1767 238.214 37.6875V9.75406C238.112 9.59099 238.01 9.44423 237.909 9.31378C237.57 9.18332 237.214 9.06917 236.841 8.97133C236.468 8.87349 236.095 8.82458 235.722 8.82458C235.519 8.82458 235.298 8.82458 235.061 8.82458C234.858 8.8898 234.756 9.05287 234.756 9.31378C234.79 9.54207 235.642 9.73775 235.642 9.90082V42.8731H233.942C233.942 42.4491 233.959 42.0577 233.993 41.699C233.993 41.3729 233.993 41.0141 233.993 40.6227C233.993 39.9052 233.976 39.3997 233.942 39.1062L234.338 38.5213L233.536 38.8127C232.722 39.3671 231.858 39.9705 230.942 40.6227C229.993 41.3076 229.146 42.0088 228.4 42.7263L228.044 43.0688C227.841 43.1992 227.705 43.2644 227.637 43.2644C227.4 43.134 227.179 42.9872 226.976 42.8242C226.739 42.6611 226.163 42.1882 225.247 41.4055C224.332 40.6227 223.756 40.1335 223.518 39.9379L223.213 39.6933L222.857 39.4976C222.62 39.6606 222.434 39.7748 222.298 39.84L220.722 41.0141L220.315 40.6227L222.349 39.1062L222.654 38.6659L222.705 38.03V12.0044L222.908 10.7814C223.01 10.227 223.213 9.70514 223.518 9.21593C223.823 8.75935 224.298 8.30276 224.942 7.84617C225.586 7.42219 226.23 7.16129 226.874 7.06345C227.485 6.96561 228.044 6.90038 228.552 6.86776C229.027 6.86776 229.417 6.86776 229.722 6.86776C230.197 6.86776 230.688 6.93299 231.197 7.06345C231.705 7.1939 232.214 7.32435 232.722 7.45481C233.231 7.58526 233.858 7.76463 234.604 7.99293C235.349 8.22122 235.943 8.38429 236.383 8.48213C236.79 8.57997 237.129 8.66151 237.4 8.72673C237.671 8.79196 238.112 8.84088 238.722 8.8735C239.333 8.93872 239.824 8.98764 240.197 9.02026C240.57 9.05287 240.943 9.06918 241.316 9.06918C241.756 9.06918 242.18 9.05287 242.587 9.02026C242.96 9.02026 243.451 8.95503 244.062 8.82458C244.672 8.72674 245.079 8.6452 245.282 8.57997C245.451 8.54736 245.723 8.35168 246.095 7.99293C246.434 7.66679 246.638 7.30805 246.706 6.91668C246.773 6.55793 246.807 6.19919 246.807 5.84044C246.807 5.64476 246.773 5.41646 246.706 5.15555C246.638 4.89464 246.451 4.63374 246.146 4.37283C245.807 4.11192 245.434 3.91624 245.028 3.78579C244.621 3.65534 244.231 3.59011 243.858 3.59011C243.621 3.59011 243.248 3.62272 242.739 3.68795C242.231 3.75317 241.841 3.78579 241.57 3.78579C240.994 3.78579 240.282 3.88363 239.434 4.07931C238.553 4.27499 238.095 4.37283 238.061 4.37283L233.739 5.00879C232.349 5.17186 230.959 5.35123 229.569 5.54691C229.163 5.54691 228.841 5.54691 228.603 5.54691C228.366 5.54691 228.061 5.49799 227.688 5.40015C227.281 5.33493 226.925 5.23709 226.62 5.10663C226.315 5.00879 225.908 4.7968 225.4 4.47067C224.857 4.17715 224.349 3.73687 223.874 3.14983C223.366 2.53017 223.078 2.00835 223.01 1.58438C222.942 1.1604 222.908 0.785348 222.908 0.459213C222.908 0.263532 222.925 0.0352382 222.959 -0.22567C222.993 -0.486578 223.044 -0.796414 223.112 -1.15516C223.145 -1.54652 223.298 -1.9705 223.569 -2.42709C223.84 -2.91629 224.095 -3.24242 224.332 -3.40549C224.535 -3.60117 224.823 -3.81316 225.196 -4.04145C225.535 -4.30236 225.84 -4.51435 226.112 -4.67741C226.349 -4.87309 226.62 -5.01985 226.925 -5.11769L228.298 -5.3623L228.807 -5.41122C228.637 -5.21554 228.468 -5.00355 228.298 -4.77526C228.095 -4.54696 227.942 -4.33497 227.841 -4.13929C227.705 -3.94361 227.603 -3.78054 227.535 -3.65009C227.434 -3.51964 227.366 -3.35657 227.332 -3.16089C227.332 -2.89998 227.332 -2.7043 227.332 -2.57384C227.332 -2.37816 227.366 -2.19879 227.434 -2.03572C227.468 -1.90527 227.722 -1.69328 228.196 -1.39976C228.637 -1.10624 229.23 -0.95948 229.976 -0.95948C230.383 -0.95948 230.807 -1.0084 231.247 -1.10624C231.688 -1.20408 232.112 -1.30192 232.519 -1.39976L236.282 -2.03572C236.519 -2.06834 237.044 -2.16618 237.858 -2.32924C238.671 -2.49231 239.383 -2.60646 239.994 -2.67169C240.604 -2.76953 241.078 -2.81845 241.417 -2.81845C241.756 -2.85106 242.248 -2.86737 242.892 -2.86737C243.468 -2.86737 243.96 -2.85106 244.367 -2.81845C244.74 -2.78584 245.146 -2.72061 245.587 -2.62277C245.994 -2.52493 246.367 -2.42708 246.706 -2.32924C247.045 -2.2314 247.418 -2.01942 247.824 -1.69328C248.231 -1.39976 248.536 -1.10624 248.74 -0.812717C248.909 -0.551809 249.096 -0.22567 249.299 0.165691C249.502 0.52444 249.706 0.932106 249.909 1.38869C250.079 1.81267 250.18 2.25295 250.214 2.70954C250.214 3.1009 250.214 3.44334 250.214 3.73687C250.18 4.03039 250.096 4.47067 249.96 5.05771C249.824 5.67737 249.536 6.26441 249.096 6.81884C248.621 7.37327 248.18 7.76463 247.774 7.99293C247.367 8.22122 247.011 8.4169 246.706 8.57997L245.79 9.06918L245.282 9.46054V22.1309L245.485 22.7179C245.553 22.8158 245.638 22.881 245.74 22.9136C245.841 22.9462 245.926 22.9625 245.994 22.9625C246.197 22.9951 246.468 22.9788 246.807 22.9136C247.112 22.881 247.435 22.7342 247.774 22.4733C248.113 22.2124 248.282 21.9189 248.282 21.5928C248.282 21.3645 248.248 21.1199 248.18 20.859C248.079 20.598 247.96 20.3698 247.824 20.1741C247.689 20.011 247.587 19.8806 247.519 19.7827C247.757 19.8153 247.994 19.8642 248.231 19.9295C248.468 19.9947 248.791 20.1252 249.197 20.3208C249.57 20.5491 249.926 20.9079 250.265 21.3971C250.57 21.9189 250.757 22.3918 250.825 22.8158L250.977 23.9409C250.977 24.4627 250.875 25.0172 250.672 25.6042C250.435 26.2239 250.163 26.6642 249.858 26.9251C249.519 27.186 249.231 27.3817 248.994 27.5121C248.723 27.6752 248.384 27.8382 247.977 28.0013C247.333 28.1644 246.757 28.3111 246.248 28.4416C245.706 28.6047 245.401 28.7677 245.333 28.9308L245.282 29.4689V37.394C245.316 37.5897 245.35 37.8017 245.384 38.03C245.384 38.2583 245.468 38.5518 245.638 38.9105C245.807 39.2693 246.062 39.5139 246.401 39.6443L247.214 39.7911C247.485 39.7911 247.74 39.7748 247.977 39.7422C248.18 39.7422 248.401 39.6769 248.638 39.5465C248.841 39.4487 248.994 39.3182 249.096 39.1551C249.197 39.0247 249.282 38.9268 249.35 38.8616L249.909 38.1278ZM233.841 27.9035C233.739 27.773 233.485 27.61 233.078 27.4143C232.637 27.2186 232.214 27.1207 231.807 27.1207C231.332 27.1207 230.892 27.186 230.485 27.3164C230.044 27.4469 229.79 27.5773 229.722 27.7078C229.62 27.8709 229.569 28.0339 229.569 28.197C229.536 28.3601 229.502 28.5231 229.468 28.6862V35.535L229.569 36.1221C229.603 36.2199 229.654 36.3178 229.722 36.4156C229.79 36.5461 229.858 36.6765 229.925 36.807L232.214 38.7638C232.417 38.7638 233.736 37.5599 234.146 37.1392C234.556 36.7186 234.696 36.549 234.93 36.2841C235.163 36.0193 233.773 37.0516 233.841 36.8559H234.146V28.5884L233.841 27.9035ZM229.468 26.7783C230.01 26.6152 230.451 26.4848 230.79 26.3869C231.129 26.2891 231.485 26.2402 231.858 26.2402C232.231 26.2402 232.586 26.2891 232.925 26.3869C233.264 26.4848 233.603 26.6152 233.942 26.7783C234.01 26.7783 234.078 26.6642 234.146 26.4359V24.0388C234.078 23.8105 234.01 23.6963 233.942 23.6963C233.637 23.8268 233.298 23.9409 232.925 24.0388C232.519 24.1692 232.163 24.2345 231.858 24.2345C231.485 24.2345 231.095 24.1692 230.688 24.0388C230.281 23.9083 229.875 23.7942 229.468 23.6963V26.7783ZM229.468 22.8158C230.01 22.9788 230.451 23.1093 230.79 23.2071C231.129 23.305 231.485 23.3539 231.858 23.3539C232.231 23.3539 232.586 23.305 232.925 23.2071C233.264 23.1093 233.603 22.9788 233.942 22.8158C234.044 22.6527 234.112 22.5222 234.146 22.4244V9.02026L234.095 8.53105C234.027 8.43321 233.926 8.38429 233.79 8.38429C233.654 8.38429 233.502 8.38429 233.332 8.38429L232.214 8.53105C232.044 8.56367 231.841 8.66151 231.603 8.82458C231.332 9.02026 231.078 9.19963 230.841 9.3627C230.603 9.52577 230.366 9.80298 230.129 10.1943C229.891 10.6183 229.739 11.1564 229.671 11.8087C229.569 12.461 229.502 12.8686 229.468 13.0317V22.8158Z" fill="white"/>
</g>
<path d="M228.497 12.3218L227.464 10.7725V18.8825L226.232 19.0017C225.703 19.0811 225.305 19.1606 225.04 19.24C224.776 19.3195 224.551 19.399 224.365 19.4784C224.18 19.5579 224.008 19.6638 223.849 19.7962C223.69 19.9286 223.504 20.0875 223.293 20.2729C223.107 20.4318 222.948 20.5642 222.816 20.6702C222.683 20.7496 222.538 20.9218 222.379 21.1866C222.22 21.425 222.114 21.703 222.061 22.0208V23.0537C222.061 23.4245 222.074 23.7026 222.101 23.8879C222.127 24.0733 222.193 24.2985 222.299 24.5633C222.405 24.8281 222.511 25.04 222.617 25.1989C222.75 25.3313 222.922 25.5167 223.134 25.7551C223.345 25.9669 223.61 26.1523 223.928 26.3112L224.484 26.5496L225.279 26.5893L224.961 26.1126C224.935 26.0861 224.882 26.0199 224.802 25.914C224.749 25.808 224.723 25.7286 224.723 25.6756V25.3181C224.723 25.0797 224.736 24.9208 224.762 24.8414C224.815 24.7354 224.921 24.603 225.08 24.4441C225.266 24.2852 225.504 24.1793 225.795 24.1263C226.087 24.0733 226.391 24.0336 226.709 24.0071C226.841 24.0071 226.987 24.0601 227.146 24.166L227.464 24.4044V32.2674C227.411 32.4792 227.345 32.8049 227.265 32.8579L226.908 33.3958L228.616 34.0854C228.616 34.0854 228.282 33.2432 228.139 33.1006C227.997 32.9583 227.94 32.6249 227.94 32.6249V12.5204C227.993 12.2291 228.06 12.0835 228.139 12.0835L228.298 12.1629L228.497 12.3218Z" fill="white"/>
<path fill-rule="evenodd" clip-rule="evenodd" d="M108.834 25.2928C108.674 26.0928 108.594 26.9061 108.594 27.7328C108.594 28.5595 108.674 29.3728 108.834 30.1728C108.994 30.9461 109.261 31.6528 109.634 32.2928C110.034 32.9061 110.554 33.3995 111.194 33.7728C111.834 34.1461 112.634 34.3328 113.594 34.3328C114.554 34.3328 115.354 34.1461 115.994 33.7728C116.661 33.3995 117.181 32.9061 117.554 32.2928C117.954 31.6528 118.234 30.9461 118.394 30.1728C118.554 29.3728 118.634 28.5595 118.634 27.7328C118.634 26.9061 118.554 26.0928 118.394 25.2928C118.234 24.4928 117.954 23.7861 117.554 23.1728C117.181 22.5595 116.661 22.0661 115.994 21.6928C115.354 21.2928 114.554 21.0928 113.594 21.0928C112.634 21.0928 111.834 21.2928 111.194 21.6928C110.554 22.0661 110.034 22.5595 109.634 23.1728C109.261 23.7861 108.994 24.4928 108.834 25.2928ZM103.674 32.2128C103.167 30.8795 102.914 29.3861 102.914 27.7328C102.914 26.0795 103.167 24.5861 103.674 23.2528C104.181 21.8928 104.901 20.7461 105.834 19.8128C106.767 18.8528 107.887 18.1195 109.194 17.6128C110.501 17.0795 111.967 16.8128 113.594 16.8128C115.221 16.8128 116.687 17.0795 117.994 17.6128C119.327 18.1195 120.461 18.8528 121.394 19.8128C122.327 20.7461 123.047 21.8928 123.554 23.2528C124.061 24.5861 124.314 26.0795 124.314 27.7328C124.314 29.3861 124.061 30.8795 123.554 32.2128C123.047 33.5461 122.327 34.6928 121.394 35.6528C120.461 36.5861 119.327 37.3061 117.994 37.8128C116.687 38.3195 115.221 38.5728 113.594 38.5728C111.967 38.5728 110.501 38.3195 109.194 37.8128C107.887 37.3061 106.767 36.5861 105.834 35.6528C104.901 34.6928 104.181 33.5461 103.674 32.2128ZM127.207 38.0528V17.3728H132.607V21.2128H132.687C132.954 20.5728 133.314 19.9861 133.767 19.4528C134.221 18.8928 134.741 18.4261 135.327 18.0528C135.914 17.6528 136.541 17.3461 137.207 17.1328C137.874 16.9195 138.567 16.8128 139.287 16.8128C139.661 16.8128 140.074 16.8795 140.527 17.0128V22.2928C140.261 22.2395 139.941 22.1995 139.567 22.1728C139.194 22.1195 138.834 22.0928 138.487 22.0928C137.447 22.0928 136.567 22.2661 135.847 22.6128C135.127 22.9595 134.541 23.4395 134.087 24.0528C133.661 24.6395 133.354 25.3328 133.167 26.1328C132.981 26.9328 132.887 27.7995 132.887 28.7328V38.0528H127.207ZM142.474 38.0528V9.4928H148.154V24.8128L155.314 17.3728H162.034L154.234 24.9728L162.914 38.0528H156.034L150.354 28.8128L148.154 30.9328V38.0528H142.474ZM169.963 9.4928V14.1728H164.283V9.4928H169.963ZM164.283 38.0528V17.3728H169.963V38.0528H164.283ZM173.635 38.0528V17.3728H179.035V20.2528H179.155C179.875 19.0528 180.809 18.1861 181.955 17.6528C183.102 17.0928 184.275 16.8128 185.475 16.8128C186.995 16.8128 188.235 17.0261 189.195 17.4528C190.182 17.8528 190.955 18.4261 191.515 19.1728C192.075 19.8928 192.462 20.7861 192.675 21.8528C192.915 22.8928 193.035 24.0528 193.035 25.3328V38.0528H187.355V26.3728C187.355 24.6661 187.089 23.3995 186.555 22.5728C186.022 21.7195 185.075 21.2928 183.715 21.2928C182.169 21.2928 181.049 21.7595 180.355 22.6928C179.662 23.5995 179.315 25.1061 179.315 27.2128V38.0528H173.635ZM203.986 32.6128C204.573 32.9861 205.306 33.1728 206.186 33.1728C206.986 33.1728 207.693 33.0128 208.306 32.6928C208.92 32.3728 209.426 31.9461 209.826 31.4128C210.226 30.8795 210.52 30.2795 210.706 29.6128C210.92 28.9195 211.026 28.1995 211.026 27.4528C211.026 26.5995 210.946 25.7995 210.786 25.0528C210.626 24.2795 210.36 23.5995 209.986 23.0128C209.613 22.4261 209.12 21.9595 208.506 21.6128C207.893 21.2661 207.12 21.0928 206.186 21.0928C205.386 21.0928 204.693 21.2528 204.106 21.5728C203.546 21.8928 203.066 22.3328 202.666 22.8928C202.293 23.4261 202.013 24.0528 201.826 24.7728C201.666 25.4661 201.586 26.1995 201.586 26.9728C201.586 27.7195 201.653 28.4661 201.786 29.2128C201.946 29.9328 202.2 30.5861 202.546 31.1728C202.92 31.7595 203.4 32.2395 203.986 32.6128ZM216.426 17.3728V36.7328C216.426 37.5595 216.306 38.5061 216.066 39.5728C215.853 40.6395 215.373 41.6261 214.626 42.5328C213.88 43.4661 212.8 44.2528 211.386 44.8928C209.973 45.5328 208.08 45.8528 205.706 45.8528C204.693 45.8528 203.653 45.7195 202.586 45.4528C201.546 45.2128 200.586 44.8261 199.706 44.2928C198.853 43.7595 198.133 43.0661 197.546 42.2128C196.986 41.3861 196.666 40.3861 196.586 39.2128H202.226C202.493 40.2795 203.013 41.0128 203.786 41.4128C204.56 41.8395 205.453 42.0528 206.466 42.0528C208.066 42.0528 209.226 41.5728 209.946 40.6128C210.693 39.6528 211.053 38.4395 211.026 36.9728V34.2528H210.946C210.333 35.3461 209.453 36.1595 208.306 36.6928C207.186 37.1995 206 37.4528 204.746 37.4528C203.2 37.4528 201.866 37.1861 200.746 36.6528C199.626 36.0928 198.706 35.3461 197.986 34.4128C197.266 33.4528 196.733 32.3461 196.386 31.0928C196.066 29.8128 195.906 28.4661 195.906 27.0528C195.906 25.7195 196.093 24.4395 196.466 23.2128C196.866 21.9595 197.44 20.8661 198.186 19.9328C198.933 18.9728 199.853 18.2128 200.946 17.6528C202.066 17.0928 203.346 16.8128 204.786 16.8128C206.146 16.8128 207.333 17.0661 208.346 17.5728C209.386 18.0795 210.253 18.9328 210.946 20.1328H211.026V17.3728H216.426Z" fill="white"/>
<path fill-rule="evenodd" clip-rule="evenodd" d="M86.1267 32.0079V11.4755L86.1756 10.8395L86.4691 10.3993L88.4259 8.88272L88.0346 8.49136L86.5181 9.66545C86.3876 9.73067 86.2082 9.84482 85.9799 10.0079L85.6375 9.81221L85.344 9.56761C85.1157 9.37193 84.5612 8.88272 83.6807 8.1C82.8001 7.31727 82.2457 6.84438 82.0174 6.68131C81.8217 6.51824 81.6097 6.37148 81.3814 6.24103C81.3162 6.24103 81.1857 6.30625 80.9901 6.43671L80.6476 6.77915C80.3634 7.06334 80.0639 7.34497 79.749 7.62404V38.314L82.6238 37.9174L86.1267 32.0079Z" fill="white"/>
<path fill-rule="evenodd" clip-rule="evenodd" d="M91.5615 10.1779L92.3104 10.8927L94.422 12.6985L94.6254 13.0899C94.6932 13.1877 94.744 13.2855 94.7779 13.3834L94.8796 13.9704V16.6368L94.8933 16.672V29.5979L94.8796 29.6955V36.4737C94.8457 36.6368 94.7779 37.0445 94.6763 37.6968C94.6085 38.349 94.4559 38.8871 94.2186 39.3111C93.9813 39.7025 93.744 39.9797 93.5067 40.1428C93.4745 40.1649 93.442 40.1873 93.4092 40.21L93.3678 40.5061L96.9332 39.4579L99.6259 38.6062L101.643 34.9689V11.4755L101.693 10.8395L101.999 10.3993L104.033 8.88272L103.626 8.49136L102.049 9.66545C101.914 9.73067 101.727 9.84482 101.49 10.0079L101.134 9.81221L100.829 9.56761C100.592 9.37193 100.015 8.88272 99.1002 8.1C98.1849 7.31727 97.6086 6.84438 97.3713 6.68131C97.1679 6.51824 96.9475 6.37148 96.7102 6.24103C96.6424 6.24103 96.5068 6.30625 96.3034 6.43671L95.9475 6.77915C95.2017 7.49665 94.3542 8.19784 93.405 8.88272C92.7657 9.33831 92.1512 9.77004 91.5615 10.1779Z" fill="white"/>
<path d="M86.7822 22.7327L90.1142 19.8354L93.3495 22.7327L90.1625 25.5817L90.4522 25.3886V33.8875L89.8727 34.3221V25.3886L90.1625 25.5817L86.7822 22.7327Z" fill="white"/>
<path d="M90.1265 37.7988C90.1265 38.0597 90.0286 38.2228 89.833 38.288L88.561 38.6304L90.2732 39.1196L92.0833 39.6577L91.4963 38.7283H91.056C90.9255 38.7283 90.8277 38.6793 90.7624 38.5815L90.7135 38.0923L90.7135 27.0811C90.7461 26.9833 90.6157 26.8528 90.7135 26.6898V25.8092C90.6483 25.8092 90.7787 25.695 90.7135 25.4667V23.0697C90.7787 22.8414 90.6483 22.7272 90.7135 22.7272V21.602V20.9172V12.6496L90.9581 11.818C91.0233 11.6223 91.1864 11.394 91.4473 11.1331L91.3006 10.6928L90.9581 10.7417L90.9092 10.3993C90.8766 10.1058 90.8603 9.60028 90.8603 8.88278V7.80653C90.8929 7.44778 90.9092 7.05642 90.9092 6.63245H90.0776L90.0776 37.2117C90.0776 37.3748 90.0939 37.5705 90.1265 37.7988Z" fill="white"/>
<path d="M61.8705 15.8274H61.1766L60.0587 15.6825C59.5961 15.5538 59.1721 15.3445 58.7866 15.0548C58.3754 14.765 57.99 14.3143 57.6302 13.7027C57.2704 13.091 57.0391 12.4954 56.9363 11.916C56.8335 11.3043 56.7693 10.8858 56.7436 10.6605C56.6922 10.4029 56.6665 10.1776 56.6665 9.98441C56.6665 9.82345 56.6922 9.54981 56.7436 9.1635C56.795 8.77719 56.8721 8.47136 56.9749 8.24601C57.052 7.98847 57.219 7.63435 57.476 7.18365C57.733 6.73295 58.1056 6.39493 58.5939 6.16958C59.0308 5.71888 59.4933 5.44524 59.9816 5.34866C60.4442 5.25209 60.804 5.2038 61.0609 5.2038H61.9861L61.2922 5.59011C61.0352 5.65449 60.7911 5.76717 60.5598 5.92813L59.8274 6.74905L59.6732 7.23194C59.5961 7.3929 59.5576 7.58606 59.5576 7.81141C59.5576 7.90798 59.6732 8.21381 59.9045 8.7289C60.0844 9.01863 60.29 9.22788 60.5213 9.35666C60.7526 9.45323 61.0481 9.53371 61.4079 9.5981C61.6906 9.5981 62.076 9.50152 62.5643 9.30836L63.6051 8.87376C64.1448 8.74499 64.723 8.55184 65.3398 8.2943C65.9565 8.03675 66.3806 7.87579 66.6118 7.81141C67.5113 7.36071 68.1024 7.10317 68.385 7.03878C68.642 6.9422 68.9247 6.86172 69.2331 6.79733C69.5158 6.70076 69.9013 6.57199 70.3895 6.41102C70.8778 6.25006 71.3789 6.16958 71.8929 6.16958C72.5868 6.16958 73.2549 6.34664 73.8974 6.70076C74.2315 6.79733 74.5142 6.9261 74.7454 7.08707C74.9767 7.21584 75.3365 7.52167 75.8248 8.00456C76.2874 8.45526 76.6343 9.03473 76.8656 9.74297C77.0969 10.4512 77.2382 10.9824 77.2896 11.3365C77.341 11.6906 77.3667 12.1252 77.3667 12.6403C77.3667 13.5095 77.1997 14.2821 76.8656 14.9582C76.6857 15.4089 76.5572 15.7147 76.4801 15.8757C76.3773 16.0366 76.2231 16.1976 76.0175 16.3586L75.1309 16.7932L75.2851 16.3586L75.4008 15.9723L75.5549 15.3445C75.6063 14.8616 75.6192 14.5236 75.5935 14.3304C75.5678 14.1373 75.5036 13.9602 75.4008 13.7992C75.2723 13.6061 75.1566 13.4451 75.0538 13.3164C74.9253 13.1876 74.7583 13.0427 74.5527 12.8818C74.3471 12.6886 74.1415 12.5598 73.9359 12.4954C73.7303 12.4311 73.5762 12.3989 73.4734 12.3989C73.3192 12.3989 73.1007 12.4311 72.818 12.4954L71.97 12.6886C71.6873 12.753 71.4175 12.8335 71.1605 12.93C70.9035 12.9944 70.4409 13.1715 69.7728 13.4612L66.7275 14.6202C66.085 14.8455 65.571 15.0226 65.1856 15.1513C64.8001 15.2479 64.3889 15.3445 63.952 15.4411C63.5152 15.5377 63.1682 15.6342 62.9112 15.7308C62.6543 15.7952 62.4358 15.8274 62.2559 15.8274H61.8705Z" fill="white"/>
<path fill-rule="evenodd" clip-rule="evenodd" d="M100.585 39.0799C100.71 38.8794 100.812 38.702 100.89 38.5478C101.061 38.2303 101.168 37.9978 101.21 37.8503C101.274 37.7024 101.348 37.5228 101.433 37.3116C101.518 37.1004 101.57 36.9107 101.589 36.7425C101.631 36.553 101.661 36.3846 101.68 36.2374C101.722 36.0899 101.741 35.8902 101.737 35.6384L101.728 35.1033L101.75 34.4418L101.101 35.3332C100.863 35.6517 100.592 36.0127 100.289 36.4161C100.008 36.7982 99.7476 37.096 99.5078 37.3095C99.2982 37.5148 99.0176 37.7699 98.666 38.0746L96.9538 34.7258L95.1401 35.56C95.1764 35.4374 95.2089 35.306 95.2373 35.1658C95.3025 34.8618 95.3414 34.6189 95.3541 34.437C95.3733 34.2398 95.3776 34.0991 95.3669 34.0149C95.3676 33.9262 95.3668 33.8191 95.3645 33.6937C95.3622 33.5682 95.3477 33.4603 95.321 33.3699C95.3008 33.2642 95.2797 33.1715 95.2577 33.0918C95.2471 33.0076 95.2132 32.9011 95.1561 32.7722L95.0348 32.4984L94.9019 32.1533L94.762 32.7397C94.7089 32.9505 94.6482 33.1894 94.5801 33.4566C94.5185 33.7086 94.4492 33.9131 94.3723 34.0701C94.3066 34.2226 94.2132 34.4178 94.0921 34.6556C93.9823 34.8889 93.8233 35.1165 93.6152 35.3384C93.4071 35.5603 93.1621 35.759 92.8802 35.9345C92.618 36.0643 92.4416 36.1472 92.351 36.1833C92.1698 36.2555 91.9589 36.3206 91.7181 36.3787C91.4887 36.4322 91.2715 36.4682 91.0666 36.4867C90.8616 36.5052 90.6826 36.507 90.5295 36.4922C90.3764 36.4774 90.237 36.4635 90.1113 36.4504C89.9969 36.4328 89.8376 36.3889 89.6333 36.3187L89.3027 36.204L89.1268 36.1226L88.9267 36.0317L88.4694 35.7212C88.2246 35.551 88.025 35.3855 87.8705 35.2248C87.8435 35.1616 87.8186 35.0995 87.7957 35.0384L86.2588 32.9964V27.5269C85.988 27.7875 85.7176 28.0765 85.4477 28.3939C85.2964 28.6061 85.1016 28.8609 84.8632 29.1584C84.6469 29.4556 84.4107 29.8789 84.1544 30.4286C83.9604 30.8658 83.8127 31.3525 83.7112 31.8889V35.7156L83.7104 35.7174C83.8171 36.1965 83.9134 36.6067 83.9995 36.948C84.0169 37.004 84.0353 37.0604 84.0547 37.1173C84.0699 37.116 84.0849 37.1154 84.0996 37.1154C84.3586 37.1154 84.5657 37.2136 84.7211 37.4101C84.8764 37.5574 85.0577 37.7048 85.2648 37.8521L91.479 42.6408L92.1004 43.0828L92.5112 43.2289C92.6332 43.2349 92.7416 43.2372 92.8365 43.2358L93.2672 43.2292C93.4222 43.1313 93.6029 43.0334 93.8093 42.9355L100.585 39.0799ZM96.8454 39.1583C97.0165 39.0947 97.1829 39.0246 97.3447 38.9482C97.4722 38.8879 97.5948 38.8251 97.7124 38.7596L96.8454 39.1583Z" fill="white"/>
<path fill-rule="evenodd" clip-rule="evenodd" d="M86.7287 36.9262C86.7572 36.8784 86.7847 36.8314 86.8113 36.7854L86.5542 36.6223C86.5483 36.6189 86.5424 36.6155 86.5366 36.612L86.7287 36.9262ZM86.0311 36.2793C85.9671 36.2872 85.8992 36.3085 85.8274 36.3431L85.6025 35.9945C85.7282 36.0328 85.8416 36.1051 85.9427 36.2114C85.9714 36.2341 86.0009 36.2567 86.0311 36.2793ZM84.7626 34.6924L85.6025 35.9945C85.5 35.9632 85.3893 35.9546 85.2704 35.9685C85.0588 35.9934 84.8098 36.1568 84.5234 36.4586C84.29 36.7542 83.8776 37.1245 83.2862 37.5695C82.7415 37.9554 81.9166 38.696 80.8116 39.7913C79.7066 40.8867 78.7277 41.9136 77.8748 42.872C77.7978 42.9082 77.5398 43.0459 77.2511 43.2004C77.1336 43.205 77.0115 43.2073 76.8847 43.2073C76.595 43.2717 76.2892 43.3039 75.9673 43.3039H75.2429C74.7922 43.3039 74.1323 43.2395 73.2631 43.1107C72.4261 42.9819 71.4925 42.6761 70.4623 42.1932C69.4321 41.7103 68.5951 41.2596 67.9513 40.8411C67.3396 40.4226 66.8245 40.0363 66.406 39.6822C66.0197 39.2959 65.5851 38.8291 65.1022 38.2818C64.6515 37.7023 64.2974 37.2194 64.0399 36.8331C63.7823 36.4468 63.5087 35.9317 63.2189 35.2879C62.9292 34.644 62.7039 34.0324 62.5429 33.4529C62.4141 32.8734 62.2693 32.1652 62.1083 31.3282L62.0117 28.6723L62.1566 26.2095C62.3175 25.1794 62.5751 24.2619 62.9292 23.4571C63.3155 22.6201 63.6696 21.9762 63.9916 21.5255C64.3457 21.0748 64.6354 20.6885 64.8608 20.3666C65.5046 19.5939 66.1485 18.934 66.7923 18.3867C67.4362 17.8394 67.9352 17.437 68.2893 17.1795C68.6756 16.8898 69.1585 16.5839 69.738 16.262C70.3174 15.9079 70.7681 15.6503 71.0901 15.4894C71.412 15.2962 71.8305 15.1674 72.3456 15.1031L73.3114 14.9582L72.3939 15.6825C71.8144 16.1976 71.2671 16.6966 70.752 17.1795C70.2691 17.6302 69.8667 18.1292 69.5448 18.6764C69.2229 19.1915 68.9492 19.7549 68.7239 20.3666L68.1927 21.6221C67.9996 21.944 67.8547 22.2337 67.7581 22.4913C67.6937 22.7166 67.6132 23.1029 67.5167 23.6502C67.4523 24.0043 67.4201 24.455 67.4201 25.0023C67.4523 25.7106 67.4684 26.3061 67.4684 26.789C67.4684 27.4972 67.5167 28.125 67.6132 28.6723L68.0479 30.4107C68.241 31.0545 68.579 31.7789 69.0619 32.5837L69.8345 33.8392L70.2209 34.2738L70.5589 34.6601L71.2349 35.2879C71.6534 35.6742 71.9915 35.9478 72.249 36.1088C72.5387 36.2698 72.8607 36.4468 73.2148 36.64C73.5689 36.8331 74.0035 37.0102 74.5186 37.1712C75.0337 37.3321 75.597 37.4609 76.2087 37.5575C76.8526 37.654 77.432 37.7023 77.9471 37.7023C78.2046 37.7023 78.7197 37.6701 79.4924 37.6058C80.3616 37.4448 81.1664 37.1873 81.9068 36.8331C82.1994 36.6932 82.4744 36.5432 82.7319 36.3831L83.3072 27.5133V35.9863C83.4779 35.8557 83.6388 35.7194 83.7901 35.5776C84.168 35.2442 84.4921 34.9491 84.7626 34.6924Z" fill="white"/>
<path d="M77.2539 16.5034L67.5478 20.3665L67.0166 21.6221L70.7831 19.9802V32.5837C70.8153 32.5837 70.7992 32.6159 70.7349 32.6803C70.6705 32.7446 69.9783 33.1309 68.6584 33.8392L69.0447 34.2738L77.2539 30.1209V16.5034Z" fill="white"/>
<rect x="81.5264" y="33.5467" width="4.36707" height="4.02901" fill="white"/>
<path d="M9.88441 17.3728V11.1728H4.20441V17.3728H0.764414V21.1728H4.20441V33.3728C4.20441 34.4128 4.37775 35.2528 4.72441 35.8928C5.07108 36.5328 5.53775 37.0261 6.12441 37.3728C6.73775 37.7195 7.43108 37.9461 8.20441 38.0528C9.00441 38.1861 9.84441 38.2528 10.7244 38.2528C11.2844 38.2528 11.8577 38.2395 12.4444 38.2128C13.0311 38.1861 13.5644 38.1328 14.0444 38.0528V33.6528C13.7777 33.7061 13.4977 33.7461 13.2044 33.7728C12.9111 33.7995 12.6044 33.8128 12.2844 33.8128C11.3244 33.8128 10.6844 33.6528 10.3644 33.3328C10.0444 33.0128 9.88441 32.3728 9.88441 31.4128V21.1728H14.0444V17.3728H9.88441ZM16.7469 9.49279V38.0528H22.4269V27.2128C22.4269 25.1061 22.7736 23.5995 23.4669 22.6928C24.1602 21.7595 25.2802 21.2928 26.8269 21.2928C28.1869 21.2928 29.1336 21.7195 29.6669 22.5728C30.2002 23.3995 30.4669 24.6661 30.4669 26.3728V38.0528H36.1469V25.3328C36.1469 24.0528 36.0269 22.8928 35.7869 21.8528C35.5736 20.7861 35.1869 19.8928 34.6269 19.1728C34.0669 18.4261 33.2936 17.8528 32.3069 17.4528C31.3469 17.0261 30.1069 16.8128 28.5869 16.8128C27.5202 16.8128 26.4269 17.0928 25.3069 17.6528C24.1869 18.1861 23.2669 19.0528 22.5469 20.2528H22.4269V9.49279H16.7469ZM52.5779 25.4928H43.3379C43.3645 25.0928 43.4445 24.6395 43.5779 24.1328C43.7379 23.6261 43.9912 23.1461 44.3379 22.6928C44.7112 22.2395 45.1912 21.8661 45.7779 21.5728C46.3912 21.2528 47.1512 21.0928 48.0579 21.0928C49.4445 21.0928 50.4712 21.4661 51.1379 22.2128C51.8312 22.9595 52.3112 24.0528 52.5779 25.4928ZM43.3379 29.0928H58.2579C58.3645 27.4928 58.2312 25.9595 57.8579 24.4928C57.4845 23.0261 56.8712 21.7195 56.0179 20.5728C55.1912 19.4261 54.1245 18.5195 52.8179 17.8528C51.5112 17.1595 49.9779 16.8128 48.2179 16.8128C46.6445 16.8128 45.2045 17.0928 43.8979 17.6528C42.6179 18.2128 41.5112 18.9861 40.5779 19.9728C39.6445 20.9328 38.9245 22.0795 38.4179 23.4128C37.9112 24.7461 37.6579 26.1861 37.6579 27.7328C37.6579 29.3328 37.8979 30.7995 38.3779 32.1328C38.8845 33.4661 39.5912 34.6128 40.4979 35.5728C41.4045 36.5328 42.5112 37.2795 43.8179 37.8128C45.1245 38.3195 46.5912 38.5728 48.2179 38.5728C50.5645 38.5728 52.5645 38.0395 54.2179 36.9728C55.8712 35.9061 57.0979 34.1328 57.8979 31.6528H52.8979C52.7112 32.2928 52.2045 32.9061 51.3779 33.4928C50.5512 34.0528 49.5645 34.3328 48.4179 34.3328C46.8179 34.3328 45.5912 33.9195 44.7379 33.0928C43.8845 32.2661 43.4179 30.9328 43.3379 29.0928Z" fill="white"/>
</svg>
